<svg xmlns="http://www.w3.org/2000/svg" viewBox="12.2581 9.9163 397.7552 205.6047" width="397.7552" height="205.6047">
  <rect x="18.7581" y="16.4163" width="384.7552" height="192.6047" stroke="#000000" stroke-width="13" fill="none"/>
  <circle cx="295.4002" cy="53.2111" r="15.0951" stroke="#000000" stroke-width="5" fill="none"/>
  <line x1="297.0215" y1="70.4161" x2="339.9382" y2="70.1223" stroke="#000000" stroke-width="5"/>
  <line x1="354.2489" y1="91.8061" x2="338.6049" y2="70.1223" stroke="#000000" stroke-width="5"/>
  <line x1="344.6882" y1="97.8723" x2="334.2546" y2="82.217" stroke="#000000" stroke-width="5"/>
  <line x1="319.769" y1="81.1969" x2="335.688" y2="81.1969" stroke="#000000" stroke-width="5"/>
  <line x1="332.2453" y1="108.5557" x2="319.769" y2="80.9929" stroke="#000000" stroke-width="5"/>
  <line x1="334.2546" y1="138.9355" x2="332.4119" y2="108.0557" stroke="#000000" stroke-width="5"/>
  <line x1="367.4281" y1="139.5476" x2="332.8108" y2="139.5476" stroke="#000000" stroke-width="5"/>
  <line x1="384.562" y1="153.6252" x2="324.5636" y2="153.6252" stroke="#000000" stroke-width="5"/>
  <line x1="320.398" y1="148.98" x2="317.7287" y2="120.5734" stroke="#000000" stroke-width="5"/>
  <line x1="289.7445" y1="172.6218" x2="317.7246" y2="120.4336" stroke="#000000" stroke-width="5"/>
  <line x1="285.578" y1="175.7857" x2="271.212" y2="175.7857" stroke="#000000" stroke-width="5"/>
  <line x1="302.5125" y1="110.5286" x2="271.2314" y2="176.6466" stroke="#000000" stroke-width="5"/>
  <line x1="292.4688" y1="91.1791" x2="302.9497" y2="111.2936" stroke="#000000" stroke-width="5"/>
  <line x1="279.89" y1="106.5942" x2="292.6793" y2="91.1791" stroke="#000000" stroke-width="5"/>
  <line x1="253.7631" y1="106.122" x2="280.4724" y2="106.122" stroke="#000000" stroke-width="5"/>
  <line x1="253.6585" y1="93.7046" x2="274.3689" y2="93.7046" stroke="#000000" stroke-width="5"/>
  <line x1="295.0215" y1="70.7494" x2="273.5513" y2="94.6819" stroke="#000000" stroke-width="5"/>
  <line x1="256.4795" y1="33.7223" x2="367.1424" y2="33.7223" stroke="#000000" stroke-width="5"/>
  <line x1="364.8686" y1="138.4698" x2="364.8686" y2="34.0415" stroke="#000000" stroke-width="5"/>
  <line x1="255.8481" y1="31.2851" x2="255.8481" y2="93.3834" stroke="#000000" stroke-width="5"/>
  <line x1="256.269" y1="105.0697" x2="256.269" y2="181.1219" stroke="#000000" stroke-width="5"/>
  <line x1="255.9842" y1="179.7102" x2="267.6135" y2="191.3395" stroke="#000000" stroke-width="5"/>
  <line x1="266.2393" y1="191.5705" x2="287.4227" y2="191.5705" stroke="#000000" stroke-width="5"/>
  <line x1="275.0003" y1="180.2055" x2="286.0622" y2="191.2674" stroke="#000000" stroke-width="5"/>
  <line x1="272.8978" y1="179.5741" x2="291.422" y2="179.5741" stroke="#000000" stroke-width="5"/>
  <line x1="290.2286" y1="179.228" x2="303.2312" y2="192.2307" stroke="#000000" stroke-width="5"/>
  <line x1="302.3746" y1="192.2019" x2="376.3128" y2="192.2019" stroke="#000000" stroke-width="5"/>
  <line x1="376.2336" y1="193.2543" x2="365.5175" y2="182.5381" stroke="#000000" stroke-width="5"/>
  <line x1="364.6582" y1="183.9938" x2="364.6582" y2="157.8827" stroke="#000000" stroke-width="5"/>
  <line x1="365.079" y1="157.8963" x2="382.838" y2="157.8963" stroke="#000000" stroke-width="5"/>
  <line x1="37.8403" y1="110.5305" x2="91.7885" y2="56.5823" stroke="#000000" stroke-width="5"/>
  <line x1="90.4581" y1="57.397" x2="135.9603" y2="57.397" stroke="#000000" stroke-width="5"/>
  <line x1="134.2268" y1="58.2131" x2="100.3092" y2="92.1307" stroke="#000000" stroke-width="5"/>
  <line x1="98.3615" y1="92.0382" x2="165.7097" y2="92.0382" stroke="#000000" stroke-width="5"/>
  <line x1="163.4021" y1="92.081" x2="163.4021" y2="125.3993" stroke="#000000" stroke-width="5"/>
  <line x1="165.7923" y1="125.6743" x2="98.6894" y2="125.6743" stroke="#000000" stroke-width="5"/>
  <line x1="100.1549" y1="125.3406" x2="133.6708" y2="158.8565" stroke="#000000" stroke-width="5"/>
  <line x1="135.3778" y1="159.8167" x2="89.6235" y2="159.8167" stroke="#000000" stroke-width="5"/>
  <line x1="91.2153" y1="160.6703" x2="40.0649" y2="109.5199" stroke="#000000" stroke-width="5"/>
  <path d="M 381.9961 153.6252 A 13.6394 13.6394 0 0 0 365.8032 139.1605" stroke="#000000" stroke-width="5" fill="none"/>
  <path d="M 325.4814 153.0633 A 5.2507 5.2507 0 0 1 320.1909 148.4883" stroke="#000000" stroke-width="5" fill="none"/>
  <path d="M 284.4945 175.1218 A 5.919 5.919 0 0 0 290.015 171.7291" stroke="#000000" stroke-width="5" fill="none"/>
  <path d="M 297.6881 70.4161 A 5.0833 5.0833 0 0 0 294.8806 71.2617" stroke="#000000" stroke-width="5" fill="none"/>
  <path d="M 354.0215 91.6223 A 5.5509 5.5509 0 1 1 344.7134 97.6463" stroke="#000000" stroke-width="5" fill="none"/>
</svg>
